<?xml version="1.0" standalone="no"?>
<!DOCTYPE svg PUBLIC "-//W3C//DTD SVG 20010904//EN"
 "http://www.w3.org/TR/2001/REC-SVG-20010904/DTD/svg10.dtd">
<svg version="1.0" xmlns="http://www.w3.org/2000/svg"
 width="650.000000pt" height="500.000000pt" viewBox="0 0 650.000000 500.000000"
 preserveAspectRatio="xMidYMid meet">
<metadata>
Created by potrace 1.16, written by Peter Selinger 2001-2019
</metadata>
<g transform="translate(0.000000,500.000000) scale(0.100000,-0.100000)"
fill="#000000" stroke="none">
<path d="M265 4521 c6 -11 4 -13 -11 -7 -47 18 42 -54 99 -80 52 -24 75 -29
142 -29 71 0 88 4 148 33 37 18 71 41 76 51 9 17 7 17 -42 0 -29 -9 -81 -19
-117 -22 -44 -4 -55 -3 -35 3 21 5 -1 8 -72 7 -56 -1 -96 -5 -90 -9 9 -6 9 -8
-1 -8 -7 0 -15 7 -18 15 -4 8 -12 15 -19 15 -7 0 -25 10 -41 22 -15 13 -24 16
-19 9z"/>
<path d="M6040 4232 c-239 -108 -427 -198 -418 -200 20 -4 878 378 878 390 0
4 -6 8 -12 7 -7 -1 -209 -89 -448 -197z"/>
<path d="M6415 4169 c-38 -16 -79 -33 -90 -39 -11 -5 -65 -26 -120 -45 -55
-20 -113 -42 -130 -49 -56 -27 -280 -113 -330 -128 -48 -15 -75 -22 -175 -48
-149 -38 -786 -300 -805 -331 -15 -23 65 1 250 73 110 44 295 111 410 150 383
128 558 189 780 273 314 118 295 109 295 144 0 17 -3 31 -7 30 -5 0 -39 -14
-78 -30z"/>
<path d="M1 4047 c2 -56 5 -66 22 -71 12 -3 28 4 43 19 14 14 31 21 42 18 11
-2 26 3 35 11 8 9 32 16 51 16 26 0 36 4 36 15 0 11 7 14 28 10 22 -4 23 -4 7
4 -11 4 -60 14 -110 20 -50 6 -105 14 -123 18 l-33 5 2 -65z"/>
<path d="M1283 3505 c-7 -8 -13 -20 -13 -28 0 -22 -40 -33 -113 -31 -38 1 -97
-6 -135 -15 -55 -14 -106 -17 -292 -14 -305 4 -368 8 -490 28 -150 25 -160 25
-160 9 0 -8 -5 -14 -11 -14 -6 0 -8 -7 -5 -16 7 -17 -17 -58 -27 -47 -4 3 -7
-19 -7 -49 0 -31 -7 -72 -15 -91 -13 -31 -15 -159 -15 -937 l0 -901 27 -30
c16 -17 38 -41 50 -55 26 -28 42 -31 49 -6 3 9 10 25 15 35 5 9 7 28 3 41 -7
29 14 45 133 105 46 23 82 45 81 49 -7 34 42 66 115 77 41 6 53 4 78 -14 25
-19 33 -20 47 -10 14 11 15 11 4 -1 -6 -8 -12 -17 -12 -21 0 -14 65 -14 75 -1
14 18 81 22 77 5 -3 -16 3 -16 28 -3 13 7 26 7 37 1 10 -5 46 -15 81 -22 52
-10 70 -19 98 -48 33 -34 34 -35 32 -11 -2 17 2 25 17 28 11 2 26 11 33 20 16
20 15 17 -4 -48 -9 -31 -14 -73 -11 -96 4 -36 1 -44 -17 -52 l-21 -9 23 -7
c13 -4 22 -15 22 -27 0 -24 9 -24 27 -1 10 12 16 14 19 5 7 -16 48 -17 76 -2
16 9 24 8 36 -5 13 -13 14 -21 3 -58 -25 -86 -25 -86 -3 -61 10 12 27 23 38
25 24 4 43 -47 43 -117 l1 -50 20 33 c11 18 27 35 34 38 8 3 20 20 27 37 l13
32 4 -29 4 -29 13 26 c9 18 11 43 6 86 l-7 61 34 -6 c20 -4 69 -33 113 -65
l77 -58 -18 -58 c-25 -81 -33 -155 -25 -220 l7 -55 36 7 c21 4 44 9 52 10 8 2
18 4 22 4 4 1 23 18 43 39 34 34 41 37 88 36 29 0 54 2 57 6 3 4 30 10 60 14
30 3 82 10 115 16 75 12 152 13 160 1 3 -5 18 -8 33 -7 25 3 27 7 25 42 -1 22
-5 58 -9 82 -6 43 1 92 14 92 4 0 8 -26 9 -57 1 -32 3 -80 6 -108 5 -46 7 -50
33 -53 112 -10 167 -26 223 -62 110 -71 181 -152 181 -207 0 -38 14 -45 79
-37 49 5 61 10 61 24 0 10 -13 23 -30 30 -37 15 -38 28 -2 36 15 4 51 29 79
57 49 47 52 54 48 89 l-5 38 78 0 c42 1 94 7 115 14 33 12 43 12 78 -2 33 -13
46 -13 73 -4 46 17 74 15 79 -5 4 -15 5 -15 6 2 1 17 3 18 12 5 7 -10 12 -11
15 -4 7 17 45 4 66 -20 17 -20 23 -39 50 -141 6 -22 23 -58 38 -80 15 -22 40
-60 55 -85 28 -44 28 -44 39 -20 6 14 18 32 28 41 22 20 25 40 14 102 -6 35
-5 56 4 73 13 23 14 23 33 7 19 -17 20 -17 8 4 -6 12 -11 25 -11 28 0 9 83 -5
94 -16 6 -5 22 -9 37 -9 55 0 214 -102 222 -143 2 -12 5 34 7 103 2 135 0 223
-5 228 -2 2 -15 -4 -29 -13 -20 -13 -26 -26 -26 -51 0 -22 -6 -37 -15 -40 -8
-4 -15 -11 -15 -18 -1 -22 -38 -56 -54 -50 -9 3 -16 10 -16 15 0 5 -4 9 -10 9
-5 0 -7 -7 -4 -15 4 -8 1 -15 -5 -15 -6 0 -12 6 -12 13 -5 51 -10 86 -18 112
-5 17 -18 108 -28 203 l-18 173 -24 -6 c-14 -4 -38 -16 -54 -27 l-29 -21 -43
43 c-37 37 -42 45 -32 61 7 11 19 21 27 24 8 3 33 22 55 42 103 97 95 93 203
86 53 -3 99 -9 102 -12 10 -12 95 -8 108 5 7 8 22 14 33 14 18 0 20 5 14 48
-10 70 -13 79 -42 98 -31 20 -106 22 -128 4 -11 -9 -21 -7 -47 13 -49 36 -101
27 -136 -24 -15 -21 -35 -41 -44 -44 -19 -7 -25 -25 -8 -25 6 0 10 -13 10 -30
0 -27 -3 -30 -32 -30 -50 0 -59 10 -48 49 6 22 6 40 0 52 -6 10 -10 24 -10 31
0 15 88 49 135 51 30 2 47 28 27 41 -6 3 -8 23 -5 45 5 35 2 41 -26 62 -25 19
-31 30 -31 61 0 34 -3 38 -25 38 -27 0 -42 -33 -31 -68 5 -13 0 -22 -16 -29
-37 -17 -54 -57 -40 -97 7 -18 11 -43 11 -57 -1 -13 -3 -17 -6 -8 -2 8 -20 25
-40 36 -33 19 -39 20 -90 6 -58 -15 -73 -12 -55 9 12 16 1 90 -18 113 -24 29
-104 9 -130 -32 -11 -17 -11 -17 -6 0 4 11 -3 27 -18 42 -20 20 -34 24 -71 23
-57 -3 -76 -22 -83 -83 -4 -37 0 -52 17 -76 18 -24 20 -33 11 -44 -18 -21 -2
-40 18 -21 10 8 29 18 45 21 15 4 27 13 27 20 0 19 46 45 76 43 14 -2 34 -12
43 -24 9 -12 27 -25 40 -29 18 -5 21 -12 17 -30 -8 -32 8 -71 47 -109 17 -18
40 -43 49 -54 16 -20 16 -22 2 -22 -23 0 -114 -53 -114 -66 0 -21 -27 -35 -92
-48 -83 -18 -93 -12 -89 55 2 44 0 52 -10 42 -7 -7 -30 -13 -51 -13 -35 0 -38
2 -39 28 0 15 -3 21 -6 15 -4 -10 -10 -10 -26 2 -12 8 -38 15 -58 15 -21 0
-40 6 -42 13 -4 9 -6 9 -6 -1 -1 -8 -9 -10 -25 -6 -16 4 -36 -3 -65 -23 -40
-27 -45 -28 -124 -22 -46 3 -96 14 -113 22 -28 16 -26 16 79 17 104 0 107 -1
109 -22 0 -13 4 11 7 53 6 72 9 78 55 131 53 62 76 73 103 52 10 -7 29 -13 43
-13 22 0 23 1 7 10 -12 7 -15 17 -11 33 3 13 1 58 -5 102 -6 43 -11 115 -12
159 -1 44 -4 84 -7 89 -2 5 -6 79 -7 165 -5 410 -19 842 -27 847 -5 3 -1 15 9
27 l18 21 -27 -17 c-33 -21 -38 -6 -5 17 20 15 8 15 -177 12 -109 -2 -193 0
-186 4 8 5 -4 10 -31 13 -62 7 -165 34 -222 58 -26 11 -57 17 -67 14 -13 -4
-25 1 -37 14 -10 12 -29 21 -44 21 -14 0 -36 9 -49 20 -13 11 -28 20 -34 20
-6 0 -4 -5 4 -10 12 -8 11 -10 -7 -10 -13 0 -23 4 -23 10 0 5 -11 12 -25 16
-14 3 -25 11 -25 16 0 15 -27 38 -44 38 -9 0 -16 5 -16 10 0 6 -9 10 -20 10
-11 0 -20 -7 -20 -15 0 -8 -4 -15 -9 -15 -5 0 -8 8 -7 18 1 12 -6 17 -21 16
-91 -3 -104 -5 -101 -16 3 -7 -8 -22 -22 -35 -21 -17 -29 -35 -33 -74 -4 -28
-11 -56 -16 -63 -5 -6 -15 -24 -21 -40 l-11 -29 40 6 c29 3 41 1 45 -9 3 -8
13 -14 23 -15 14 0 13 -2 -5 -10 -15 -5 -30 -5 -42 1 -10 6 -40 10 -65 10 -29
0 -52 6 -62 16 -15 14 -14 15 3 12 13 -2 20 4 22 20 2 14 10 22 22 22 25 0 36
23 43 83 4 41 1 53 -19 77 -13 15 -24 35 -24 44 0 26 -31 34 -148 42 -62 4
-112 11 -112 16 0 6 -8 7 -17 4 -9 -4 -20 -1 -25 6 -6 10 -10 10 -16 1 -5 -9
-19 -9 -50 -2 -31 7 -48 6 -63 -3 -17 -10 -23 -10 -26 0 -6 16 -45 15 -60 -3z
m1173 -1995 c28 0 74 -30 89 -60 17 -34 19 -44 5 -35 -5 3 -26 1 -47 -4 -28
-8 -39 -7 -45 2 -6 9 -8 8 -8 -3 0 -17 -49 79 -50 97 0 7 7 10 15 7 13 -5 15
34 17 312 l3 319 2 -317 c3 -278 5 -318 19 -318z m-394 140 c-1 -14 4 -44 12
-67 8 -23 12 -44 9 -47 -16 -16 -128 8 -118 25 4 5 0 9 -9 9 -8 0 -21 3 -30 6
-10 4 -16 1 -16 -9 0 -8 -11 -30 -24 -50 -14 -20 -26 -51 -28 -69 -2 -23 -9
-34 -22 -36 -10 -2 -16 0 -13 5 3 4 -8 9 -24 10 -16 1 -29 -2 -29 -7 0 -9 13
-13 30 -12 3 0 7 -13 8 -29 1 -16 -3 -29 -9 -29 -6 0 -37 -25 -70 -57 -32 -31
-59 -51 -59 -45 0 18 -66 35 -89 23 -16 -9 -30 -5 -75 22 -61 35 -63 41 -47
142 5 29 5 57 0 68 -9 15 -4 17 41 17 28 0 60 -5 72 -11 30 -16 34 -2 10 31
-28 38 -28 44 6 60 15 7 44 21 65 32 35 18 77 17 77 -2 0 -5 6 -15 14 -22 7
-8 24 -34 36 -57 12 -24 24 -41 26 -38 3 3 -2 19 -10 36 -22 42 -21 44 24 39
24 -2 40 1 40 7 0 16 150 84 180 82 20 -2 24 -7 22 -27z"/>
<path d="M5354 2539 c-32 -17 -65 -36 -71 -41 -9 -7 -13 -7 -13 1 0 17 -73 13
-96 -7 -25 -21 -72 -98 -102 -168 -17 -40 -21 -68 -19 -125 2 -60 -2 -82 -20
-118 -28 -54 -28 -64 -6 -102 21 -35 13 -52 -36 -86 -41 -28 -87 -93 -66 -93
8 0 15 -6 15 -14 0 -8 24 -34 53 -59 40 -34 63 -46 100 -50 l47 -7 0 35 c0 44
53 188 80 215 11 11 20 24 20 29 0 18 73 34 129 28 31 -3 85 -15 120 -27 35
-11 67 -18 70 -13 3 4 17 8 31 8 16 0 28 8 35 23 5 12 15 22 21 22 14 0 27 36
24 68 -1 16 4 22 19 22 12 0 21 5 21 11 0 5 -5 7 -11 3 -12 -7 -58 43 -59 63
0 18 19 26 34 14 15 -13 38 8 43 37 1 9 7 18 12 20 6 2 11 10 11 18 0 9 -5 12
-11 8 -8 -5 -10 3 -6 27 19 101 18 134 -2 165 -44 70 -153 124 -250 124 -46 0
-71 -7 -117 -31z"/>
<path d="M4439 1749 c-22 -13 -40 -34 -48 -56 -15 -41 -16 -151 -2 -196 47
-150 47 -149 28 -141 -8 3 -20 -2 -27 -11 -7 -8 -17 -15 -23 -15 -5 0 -2 9 8
20 24 27 13 25 -35 -5 -31 -19 -40 -32 -40 -53 0 -15 -4 -33 -8 -40 -5 -7 -4
-35 2 -62 l10 -50 62 0 c57 0 63 -2 66 -22 2 -13 13 -27 25 -33 21 -9 38 -33
30 -42 -2 -2 -41 -6 -86 -10 -45 -3 -84 -10 -87 -15 -7 -11 -94 -10 -94 2 0 5
-10 9 -22 9 -13 -1 -35 3 -50 9 -25 10 -28 9 -28 -8 0 -10 5 -22 10 -25 6 -3
10 -28 10 -54 0 -46 1 -49 40 -66 22 -10 40 -21 40 -24 0 -4 14 -12 32 -19 17
-6 29 -14 26 -18 -3 -3 -34 8 -68 25 -34 17 -64 31 -66 31 -2 0 -4 -55 -4
-123 l0 -123 57 -57 c31 -31 62 -57 69 -57 6 0 28 -20 48 -45 20 -24 50 -52
65 -61 28 -16 71 -79 71 -103 0 -7 -13 -5 -37 6 -64 27 -77 31 -113 37 -22 4
-46 0 -64 -9 -15 -8 -34 -15 -42 -15 -23 0 -81 59 -87 88 -5 25 -13 31 -54 40
-26 6 -86 24 -133 40 -99 34 -240 46 -535 47 -169 0 -186 -2 -278 -29 -109
-32 -115 -38 -157 -154 -12 -34 -26 -64 -30 -67 -8 -5 -24 46 -35 108 -4 20
-12 37 -17 37 -5 0 -7 -8 -4 -17 28 -98 37 -144 34 -164 -2 -19 -6 -14 -20 26
l-17 50 5 -70 5 -70 -20 24 c-12 13 -21 19 -21 13 0 -19 -65 55 -91 104 -33
61 -60 81 -129 95 -135 28 -728 -7 -851 -50 -137 -47 -494 -254 -594 -344
l-40 -36 1843 -1 1842 0 0 50 c0 64 -18 65 -23 3 -2 -27 -4 93 -5 265 -1 207
1 311 8 307 6 -3 10 0 10 9 0 8 -6 17 -12 19 -10 4 -10 6 0 6 8 1 12 17 12 46
0 25 5 45 10 45 6 0 10 -24 10 -54 0 -49 2 -54 25 -60 14 -4 25 -11 25 -17 0
-6 4 -8 10 -4 5 3 26 -1 46 -10 46 -19 52 -19 57 3 3 9 5 -2 6 -25 1 -26 6
-43 13 -43 9 0 9 -3 0 -12 -17 -17 -15 -38 4 -38 8 0 12 -5 8 -11 -3 -6 -1
-15 6 -19 10 -6 10 -18 -1 -60 -15 -58 -19 -54 -39 41 -7 32 -10 68 -6 82 6
26 8 25 -141 84 -10 4 -13 -60 -13 -301 l0 -306 390 0 c253 0 390 4 390 10 0
6 -4 10 -9 10 -11 0 -20 35 -12 48 3 6 19 14 34 17 16 4 27 14 26 24 0 11 -2
12 -6 3 -6 -16 -33 31 -33 59 0 11 -4 19 -9 19 -5 0 -8 19 -6 42 3 26 1 37 -4
29 -10 -16 -31 -6 -31 16 0 8 -9 28 -20 43 -24 33 -13 45 27 29 35 -13 32 -14
49 8 13 17 14 17 7 -1 -5 -15 -3 -18 10 -13 28 11 47 -3 47 -34 0 -19 -5 -29
-15 -29 -8 0 -15 -7 -15 -16 0 -8 4 -12 10 -9 5 3 15 -5 22 -19 6 -14 17 -26
25 -26 11 0 11 -4 1 -20 -11 -17 -10 -22 0 -29 16 -10 6 -78 -15 -99 -7 -7
-13 -10 -14 -5 -1 11 -17 -29 -18 -44 -1 -10 23 -13 89 -13 l90 0 0 44 c0 25
5 48 10 51 6 4 10 -13 10 -44 l0 -51 325 0 325 0 0 260 c0 237 -4 283 -24 251
-3 -5 -16 -7 -29 -4 -14 3 -18 2 -10 -4 17 -12 36 -104 24 -116 -7 -7 -32 -3
-76 11 -36 12 -76 22 -88 22 -13 0 -45 7 -71 16 -26 9 -49 14 -52 12 -2 -3 31
-15 73 -28 134 -39 187 -58 191 -69 6 -17 -15 -13 -118 19 -161 51 -450 102
-401 71 12 -7 13 -31 7 -127 -3 -65 -10 -120 -15 -124 -4 -3 -11 -12 -14 -20
-4 -8 -5 55 -3 140 2 85 1 130 -3 100 -5 -49 -7 -52 -16 -30 -9 24 -10 23 -16
-15 l-6 -40 -2 46 c-1 43 -5 51 -57 98 -30 28 -59 51 -63 51 -4 0 -6 150 -3
333 7 580 5 537 21 524 11 -9 12 -32 7 -108 -3 -53 -9 -110 -12 -128 -4 -20
-3 -31 5 -31 6 0 11 9 11 20 0 11 5 20 11 20 5 0 8 -4 5 -9 -3 -5 1 -11 9 -15
10 -3 15 1 15 12 0 9 12 -6 27 -33 26 -48 27 -56 31 -237 l4 -188 92 0 c52 1
104 6 121 14 19 8 38 10 53 5 13 -5 89 -4 172 2 103 7 155 7 167 0 14 -8 6
-11 -37 -12 -30 -1 -98 -4 -150 -8 l-95 -6 105 -41 c159 -63 192 -74 201 -68
5 3 9 250 9 550 l0 544 -32 20 c-37 23 -94 26 -135 8 -48 -21 -101 -69 -112
-101 -18 -51 -14 -120 9 -140 11 -9 20 -27 20 -39 0 -21 15 -50 55 -104 15
-21 13 -24 -38 -70 -30 -27 -62 -61 -72 -76 -9 -16 -21 -28 -25 -28 -4 0 -28
33 -53 73 -41 64 -124 147 -148 147 -5 0 -9 10 -9 23 0 46 -26 64 -92 66 -18
1 -28 6 -28 16 0 18 -1 18 -35 5 -23 -9 -30 -7 -47 15 -11 14 -29 25 -40 25
-11 0 -26 8 -33 17 -15 20 -95 26 -88 6 3 -6 11 -14 19 -17 29 -11 13 -25 -33
-29 l-48 -3 48 -2 c40 -2 49 -6 59 -27 8 -19 8 -28 -3 -41 -11 -13 -27 -15
-91 -11 -80 5 -113 -5 -55 -17 l32 -7 -30 -15 c-28 -13 -26 -14 40 -9 l70 5
-45 -24 c-34 -19 -40 -25 -23 -26 12 0 25 -5 29 -11 3 -6 15 -9 25 -6 12 3 19
0 19 -8 0 -8 -22 -19 -55 -26 -37 -8 -51 -15 -43 -21 17 -11 -10 -30 -33 -22
-18 5 -37 -28 -20 -34 6 -2 9 -8 5 -13 -3 -5 1 -9 8 -9 7 -1 31 -9 53 -20 22
-11 50 -19 63 -20 12 0 22 -4 22 -10 0 -5 8 -7 18 -4 14 5 14 3 -2 -7 -23 -14
-86 -20 -86 -7 0 4 -9 8 -19 8 -11 0 -43 20 -72 45 -55 47 -79 56 -79 30 0 -8
5 -15 11 -15 5 0 7 -4 4 -10 -3 -5 0 -10 8 -10 8 0 33 -18 56 -40 22 -22 48
-40 55 -40 32 0 23 -18 -12 -24 -103 -17 -249 -1 -315 35 -10 5 -22 7 -28 4
-12 -8 -107 23 -116 38 -4 7 -10 32 -14 57 -4 25 -18 90 -32 145 -14 55 -24
112 -22 128 2 15 -1 27 -5 27 -5 0 -11 13 -15 30 -5 24 -12 30 -43 35 -20 3
-51 10 -69 14 -22 6 -37 5 -50 -4 -10 -7 -49 -15 -85 -17 -55 -2 -64 -1 -55
11 6 7 22 17 35 22 13 5 21 12 18 17 -2 4 -7 32 -10 62 -4 30 -8 63 -10 74 -1
10 -23 28 -52 42 -63 30 -135 32 -185 3z m579 -721 c2 8 9 8 23 -1 25 -16 24
-31 -2 -24 -13 3 -22 0 -26 -10 -4 -10 -8 -11 -13 -3 -5 8 -15 1 -30 -20 -21
-29 -22 -37 -12 -79 6 -28 7 -47 1 -49 -11 -4 -2 -22 12 -22 5 0 9 12 10 28 1
15 5 38 10 52 l8 25 -2 -26 c-1 -14 5 -34 13 -45 8 -10 10 -15 4 -11 -16 9
-22 -20 -17 -79 2 -27 -1 -67 -6 -89 -9 -39 -9 -39 -10 22 l-1 61 -37 13
c-140 45 -206 73 -188 79 15 5 10 8 -20 14 -156 26 -164 28 -152 48 7 10 20
18 29 18 10 0 38 13 63 29 l45 29 87 -20 c96 -21 113 -19 113 14 0 13 7 34 16
46 15 21 16 21 47 6 21 -11 32 -13 35 -6z"/>
<path d="M770 1304 c5 -135 1 -170 -23 -196 -22 -24 -27 -25 -83 -17 -63 9
-103 5 -146 -17 -27 -14 -27 -14 -18 17 9 32 4 59 -11 59 -5 0 -9 8 -9 18 0
12 -8 8 -30 -18 -18 -22 -25 -39 -19 -44 5 -6 9 -18 9 -28 0 -11 7 -18 20 -18
11 0 20 -4 20 -9 0 -5 18 -28 39 -51 22 -24 42 -57 46 -76 6 -33 7 -34 53 -34
42 0 53 5 95 43 26 24 47 53 47 64 0 11 9 28 20 38 18 16 19 20 5 27 -8 5 -15
20 -15 34 0 14 4 22 10 19 6 -3 10 -15 10 -26 0 -27 13 -24 32 9 14 24 15 31
2 67 -28 75 -34 100 -34 137 0 20 -5 40 -11 43 -7 5 -10 -9 -9 -41z"/>
<path d="M63 1262 l-63 -3 0 -359 0 -358 33 -8 c46 -10 204 -8 258 5 40 9 55
7 110 -13 35 -13 96 -44 136 -70 39 -25 76 -46 81 -46 6 0 24 -12 41 -26 38
-31 65 -28 69 8 3 24 9 28 59 38 30 7 64 10 74 7 10 -3 22 -1 25 4 3 5 31 9
62 7 31 -1 101 2 154 7 80 6 101 12 115 29 15 17 15 19 1 8 -9 -7 -22 -12 -30
-11 -7 1 -24 -1 -38 -4 -45 -11 -359 -17 -365 -7 -9 14 -21 12 -39 -6 -9 -8
-16 -11 -16 -6 0 31 36 38 275 52 242 15 249 16 251 60 1 25 10 41 34 60 l33
27 -24 6 c-47 13 -144 6 -199 -13 -57 -21 -211 -53 -218 -46 -2 3 3 37 13 77
9 43 12 76 7 81 -14 14 -60 -2 -81 -28 -10 -13 -27 -24 -38 -24 -10 0 -24 -5
-30 -11 -6 -6 -21 -9 -34 -7 -18 2 -25 11 -29 33 -4 20 -8 26 -13 17 -5 -7
-13 -10 -18 -7 -14 9 -11 -4 8 -36 9 -15 13 -32 9 -36 -4 -4 -12 0 -17 10 -6
9 -15 17 -22 17 -7 0 -6 -4 3 -11 11 -7 5 -8 -20 -4 l-36 6 4 -40 c4 -41 -12
-76 -29 -65 -5 3 -9 14 -9 25 0 20 -35 40 -57 32 -6 -3 -44 3 -84 13 l-72 17
34 28 c19 16 44 29 56 29 23 0 40 17 28 28 -3 4 -33 -8 -66 -26 -33 -18 -63
-31 -68 -28 -4 3 -6 -26 -3 -64 4 -60 2 -71 -13 -76 -25 -10 -33 11 -29 82 3
58 6 66 43 101 31 31 37 43 30 56 -7 11 -6 24 1 37 24 45 40 118 40 183 0 95
-35 161 -113 212 -33 21 -144 40 -214 37z"/>
<path d="M2285 504 c-27 -2 -131 -8 -230 -14 -99 -7 -211 -18 -248 -25 -135
-28 -392 -170 -577 -320 -132 -107 -171 -145 -149 -145 8 0 37 20 65 45 127
115 427 299 594 365 62 25 225 43 526 60 210 12 343 0 400 -36 l29 -18 -24 27
c-14 15 -48 34 -75 43 -51 15 -216 25 -311 18z"/>
</g>
</svg>
