<svg xmlns="http://www.w3.org/2000/svg" xmlns:xlink="http://www.w3.org/1999/xlink" width="500" zoomAndPan="magnify" viewBox="0 0 375 374.999991" height="500" preserveAspectRatio="xMidYMid meet" version="1.0"><defs><g/></defs><rect x="-37.5" width="450" fill="#ffffff" y="-37.499999" height="449.999989" fill-opacity="1"/><rect x="-37.5" width="450" fill="#ff3131" y="-37.499999" height="449.999989" fill-opacity="1"/><g fill="#ffffff" fill-opacity="1"><g transform="translate(47.916477, 158.405974)"><g><path d="M 8.21875 -28.609375 L 2.3125 -28.609375 L 2.3125 -35.8125 L 8.21875 -35.8125 L 8.21875 -64.5 L 28.96875 -64.5 C 35.925781 -64.5 41.957031 -63.207031 47.0625 -60.625 C 52.164062 -58.039062 56.085938 -54.347656 58.828125 -49.546875 C 61.566406 -44.753906 62.9375 -39.097656 62.9375 -32.578125 C 62.9375 -21.867188 59.84375 -13.757812 53.65625 -8.25 C 47.476562 -2.75 38.820312 0 27.6875 0 L 8.21875 0 Z M 27.59375 -8.125 C 36.082031 -8.125 42.507812 -10.226562 46.875 -14.4375 C 51.25 -18.65625 53.4375 -24.703125 53.4375 -32.578125 C 53.4375 -39.898438 51.28125 -45.695312 46.96875 -49.96875 C 42.664062 -54.25 36.695312 -56.390625 29.0625 -56.390625 L 17.71875 -56.390625 L 17.71875 -35.8125 L 34.703125 -35.8125 L 34.703125 -28.609375 L 17.71875 -28.609375 L 17.71875 -8.125 Z M 27.59375 -8.125 "/></g></g></g><g fill="#ffffff" fill-opacity="1"><g transform="translate(119.620301, 158.405974)"><g><path d="M 34.421875 -68.46875 C 30.117188 -68.46875 26.71875 -69.664062 24.21875 -72.0625 C 21.726562 -74.46875 20.484375 -77.578125 20.484375 -81.390625 L 27.6875 -81.390625 C 27.6875 -79.296875 28.269531 -77.679688 29.4375 -76.546875 C 30.601562 -75.410156 32.265625 -74.84375 34.421875 -74.84375 C 36.578125 -74.84375 38.238281 -75.410156 39.40625 -76.546875 C 40.570312 -77.679688 41.15625 -79.296875 41.15625 -81.390625 L 48.265625 -81.390625 C 48.265625 -77.578125 47.015625 -74.46875 44.515625 -72.0625 C 42.023438 -69.664062 38.660156 -68.46875 34.421875 -68.46875 Z M 29.90625 -64.5 L 38.9375 -64.5 L 64.6875 0 L 55.09375 0 L 48.625 -16.0625 L 20.125 -16.0625 L 13.84375 0 L 4.15625 0 Z M 46.046875 -23.90625 L 34.421875 -54.078125 L 22.796875 -23.90625 Z M 46.046875 -23.90625 "/></g></g></g><g fill="#ffffff" fill-opacity="1"><g transform="translate(193.077494, 158.405974)"><g><path d="M 6 -64.5 L 14.953125 -64.5 L 47.796875 -15.875 L 47.796875 -64.5 L 57.3125 -64.5 L 57.3125 0 L 48.265625 0 L 15.40625 -48.625 L 15.40625 0 L 6 0 Z M 6 -64.5 "/></g></g></g><g fill="#ffffff" fill-opacity="1"><g transform="translate(260.997716, 158.405974)"><g><path d="M 38.296875 1.390625 C 31.648438 1.390625 25.742188 0.00390625 20.578125 -2.765625 C 15.410156 -5.535156 11.378906 -9.457031 8.484375 -14.53125 C 5.597656 -19.601562 4.15625 -25.492188 4.15625 -32.203125 C 4.15625 -38.910156 5.597656 -44.816406 8.484375 -49.921875 C 11.378906 -55.023438 15.410156 -58.960938 20.578125 -61.734375 C 25.742188 -64.503906 31.648438 -65.890625 38.296875 -65.890625 C 47.210938 -65.890625 54.625 -63.675781 60.53125 -59.25 L 60.53125 -50.203125 C 55.1875 -54.878906 48.050781 -57.21875 39.125 -57.21875 C 34.269531 -57.21875 29.898438 -56.203125 26.015625 -54.171875 C 22.140625 -52.140625 19.109375 -49.226562 16.921875 -45.4375 C 14.742188 -41.65625 13.65625 -37.242188 13.65625 -32.203125 C 13.65625 -27.160156 14.734375 -22.734375 16.890625 -18.921875 C 19.046875 -15.109375 22.03125 -12.1875 25.84375 -10.15625 C 29.65625 -8.125 33.960938 -7.109375 38.765625 -7.109375 C 44.359375 -7.109375 48.941406 -8.242188 52.515625 -10.515625 L 52.515625 -27.40625 L 40.234375 -27.40625 L 40.234375 -35.0625 L 61.921875 -35.0625 L 61.921875 -5.53125 C 59.023438 -3.132812 55.625 -1.378906 51.71875 -0.265625 C 47.8125 0.835938 43.335938 1.390625 38.296875 1.390625 Z M 38.296875 1.390625 "/></g></g></g><g fill="#ffffff" fill-opacity="1"><g transform="translate(121.973925, 278.0881)"><g><path d="M 6 -64.5 L 15.40625 -64.5 L 15.40625 0 L 6 0 Z M 15.875 -32.859375 L 45.3125 -64.5 L 56.75 -64.5 L 27.3125 -32.859375 L 58.59375 0 L 47.15625 0 Z M 15.875 -32.859375 "/></g></g></g><g fill="#ffffff" fill-opacity="1"><g transform="translate(188.417636, 278.0881)"><g><path d="M 32.765625 -85.453125 L 42.640625 -85.453125 L 34.96875 -69.578125 L 26.484375 -69.578125 Z M 27.59375 -24.453125 L 4.15625 -64.5 L 14.21875 -64.5 L 32.203125 -33.40625 L 50.484375 -64.5 L 60.4375 -64.5 L 36.734375 -24.453125 L 36.734375 0 L 27.59375 0 Z M 27.59375 -24.453125 "/></g></g></g></svg>