<svg xmlns="http://www.w3.org/2000/svg" xmlns:xlink="http://www.w3.org/1999/xlink" width="650" zoomAndPan="magnify" viewBox="0 0 487.5 374.999991" height="500" preserveAspectRatio="xMidYMid meet" version="1.0"><defs><g/><clipPath id="49a31c4a1d"><path d="M 186.542969 181 L 238 181 L 238 201.609375 L 186.542969 201.609375 Z M 186.542969 181 " clip-rule="nonzero"/></clipPath><clipPath id="fad818697e"><path d="M 216 170.140625 L 240 170.140625 L 240 194 L 216 194 Z M 216 170.140625 " clip-rule="nonzero"/></clipPath><clipPath id="55d56ed2d5"><path d="M 242 181 L 293.683594 181 L 293.683594 201.609375 L 242 201.609375 Z M 242 181 " clip-rule="nonzero"/></clipPath><clipPath id="d83ba2c3c0"><path d="M 240 170.140625 L 264 170.140625 L 264 194 L 240 194 Z M 240 170.140625 " clip-rule="nonzero"/></clipPath></defs><path stroke-linecap="butt" transform="matrix(0.749189, 0.00796725, -0.00796725, 0.749189, 296.478378, 183.004745)" fill="none" stroke-linejoin="miter" d="M -0.00199943 2.001067 L 188.076302 1.9979 " stroke="#8d1515" stroke-width="4" stroke-opacity="1" stroke-miterlimit="4"/><g clip-path="url(#49a31c4a1d)"><path fill="#8d1515" d="M 186.671875 181.53125 L 197.035156 201.855469 L 191.082031 185.664062 C 191.082031 185.664062 223.441406 188.386719 237.550781 201.855469 C 237.550781 201.855469 232.371094 186.074219 186.671875 181.53125 Z M 186.671875 181.53125 " fill-opacity="1" fill-rule="nonzero"/></g><path fill="#8d1515" d="M 203.3125 174.082031 L 203.3125 181.53125 C 226.523438 184.507812 239.328125 197.785156 239.328125 197.785156 C 229.972656 181.277344 203.3125 174.082031 203.3125 174.082031 Z M 203.3125 174.082031 " fill-opacity="1" fill-rule="nonzero"/><g clip-path="url(#fad818697e)"><path fill="#8d1515" d="M 216.953125 170.140625 L 216.953125 176.734375 C 231.707031 182.6875 239.308594 193.824219 239.308594 193.824219 C 234.105469 178.429688 216.953125 170.140625 216.953125 170.140625 Z M 216.953125 170.140625 " fill-opacity="1" fill-rule="nonzero"/></g><g clip-path="url(#55d56ed2d5)"><path fill="#8d1515" d="M 293.484375 181.53125 C 247.789062 186.074219 242.605469 201.855469 242.605469 201.855469 C 256.714844 188.386719 289.074219 185.664062 289.074219 185.664062 L 283.121094 201.855469 Z M 293.484375 181.53125 " fill-opacity="1" fill-rule="nonzero"/></g><path fill="#8d1515" d="M 276.867188 174.082031 C 276.867188 174.082031 250.207031 181.253906 240.847656 197.765625 C 240.847656 197.765625 253.65625 184.488281 276.867188 181.511719 Z M 276.867188 174.082031 " fill-opacity="1" fill-rule="nonzero"/><g clip-path="url(#d83ba2c3c0)"><path fill="#8d1515" d="M 263.203125 176.734375 L 263.203125 170.140625 C 263.203125 170.140625 246.050781 178.429688 240.847656 193.824219 C 240.847656 193.824219 248.449219 182.6875 263.203125 176.734375 Z M 263.203125 176.734375 " fill-opacity="1" fill-rule="nonzero"/></g><path stroke-linecap="butt" transform="matrix(0.749189, 0.00796725, -0.00796725, 0.749189, 42.640574, 181.50637)" fill="none" stroke-linejoin="miter" d="M 0.000469303 1.99887 L 188.078826 2.000917 " stroke="#8d1515" stroke-width="4" stroke-opacity="1" stroke-miterlimit="4"/><g fill="#2b5b99" fill-opacity="1"><g transform="translate(38.69168, 139.388628)"><g><path d="M 0.921875 -16.703125 L 3.609375 -16.703125 L 3.609375 -28.71875 L 12.625 -28.71875 C 17.320312 -28.71875 20.960938 -27.476562 23.546875 -25 C 26.140625 -22.53125 27.4375 -19.078125 27.4375 -14.640625 C 27.4375 -9.910156 26.09375 -6.285156 23.40625 -3.765625 C 20.71875 -1.253906 16.832031 0 11.75 0 L 3.609375 0 L 3.609375 -11.703125 L 0.921875 -11.703125 Z M 21.125 -14.484375 C 21.125 -17.515625 20.441406 -19.8125 19.078125 -21.375 C 17.710938 -22.945312 15.65625 -23.734375 12.90625 -23.734375 L 9.703125 -23.734375 L 9.703125 -16.703125 L 14.359375 -16.703125 L 14.359375 -11.703125 L 9.703125 -11.703125 L 9.703125 -5.03125 L 12.28125 -5.03125 C 18.175781 -5.03125 21.125 -8.179688 21.125 -14.484375 Z M 21.125 -14.484375 "/></g></g></g><g fill="#2b5b99" fill-opacity="1"><g transform="translate(68.479107, 139.388628)"><g><path d="M 29.6875 -14.40625 C 29.6875 -9.644531 28.503906 -5.988281 26.140625 -3.4375 C 23.785156 -0.882812 20.410156 0.390625 16.015625 0.390625 C 11.609375 0.390625 8.226562 -0.882812 5.875 -3.4375 C 3.519531 -5.988281 2.34375 -9.65625 2.34375 -14.4375 C 2.34375 -19.21875 3.523438 -22.867188 5.890625 -25.390625 C 8.253906 -27.910156 11.640625 -29.171875 16.046875 -29.171875 C 20.460938 -29.171875 23.835938 -27.898438 26.171875 -25.359375 C 28.515625 -22.816406 29.6875 -19.164062 29.6875 -14.40625 Z M 8.71875 -14.40625 C 8.71875 -11.195312 9.328125 -8.78125 10.546875 -7.15625 C 11.765625 -5.53125 13.585938 -4.71875 16.015625 -4.71875 C 20.867188 -4.71875 23.296875 -7.945312 23.296875 -14.40625 C 23.296875 -20.875 20.878906 -24.109375 16.046875 -24.109375 C 13.628906 -24.109375 11.800781 -23.289062 10.5625 -21.65625 C 9.332031 -20.03125 8.71875 -17.613281 8.71875 -14.40625 Z M 12.75 5.515625 C 12.75 3.554688 13.835938 2.578125 16.015625 2.578125 C 18.191406 2.578125 19.28125 3.554688 19.28125 5.515625 C 19.28125 6.453125 19.003906 7.175781 18.453125 7.6875 C 17.898438 8.195312 17.085938 8.453125 16.015625 8.453125 C 13.835938 8.453125 12.75 7.472656 12.75 5.515625 Z M 20.53125 -31.015625 C 18.476562 -32.234375 16.945312 -33.390625 15.9375 -34.484375 C 14.914062 -33.421875 13.414062 -32.265625 11.4375 -31.015625 L 7.453125 -31.015625 L 7.453125 -31.546875 C 9.921875 -34.023438 11.597656 -36 12.484375 -37.46875 L 19.5 -37.46875 C 19.90625 -36.78125 20.609375 -35.847656 21.609375 -34.671875 C 22.609375 -33.503906 23.578125 -32.460938 24.515625 -31.546875 L 24.515625 -31.015625 Z M 20.53125 -31.015625 "/></g></g></g><g fill="#2b5b99" fill-opacity="1"><g transform="translate(100.506486, 139.388628)"><g><path d="M 14.359375 0 L 1.296875 0 L 1.296875 -3.453125 L 4.796875 -5.0625 L 4.796875 -23.65625 L 1.296875 -25.265625 L 1.296875 -28.71875 L 14.359375 -28.71875 L 14.359375 -25.265625 L 10.859375 -23.65625 L 10.859375 -5.0625 L 14.359375 -3.453125 Z M 14.359375 0 "/></g></g></g><g fill="#2b5b99" fill-opacity="1"><g transform="translate(116.166504, 139.388628)"><g/></g></g><g fill="#2b5b99" fill-opacity="1"><g transform="translate(126.619612, 139.388628)"><g><path d="M 29.09375 0 L 21.359375 0 L 8.859375 -21.734375 L 8.6875 -21.734375 C 8.9375 -17.890625 9.0625 -15.148438 9.0625 -13.515625 L 9.0625 0 L 3.609375 0 L 3.609375 -28.71875 L 11.296875 -28.71875 L 23.765625 -7.203125 L 23.90625 -7.203125 C 23.707031 -10.941406 23.609375 -13.582031 23.609375 -15.125 L 23.609375 -28.71875 L 29.09375 -28.71875 Z M 29.09375 0 "/></g></g></g><g fill="#2b5b99" fill-opacity="1"><g transform="translate(159.334701, 139.388628)"><g><path d="M 14.515625 -16.125 L 25.90625 -16.125 L 25.90625 -1.234375 C 24.0625 -0.628906 22.320312 -0.207031 20.6875 0.03125 C 19.0625 0.269531 17.398438 0.390625 15.703125 0.390625 C 11.359375 0.390625 8.046875 -0.878906 5.765625 -3.421875 C 3.484375 -5.972656 2.34375 -9.632812 2.34375 -14.40625 C 2.34375 -19.039062 3.664062 -22.65625 6.3125 -25.25 C 8.96875 -27.84375 12.644531 -29.140625 17.34375 -29.140625 C 20.289062 -29.140625 23.132812 -28.546875 25.875 -27.359375 L 23.84375 -22.5 C 21.75 -23.539062 19.570312 -24.0625 17.3125 -24.0625 C 14.675781 -24.0625 12.566406 -23.175781 10.984375 -21.40625 C 9.398438 -19.644531 8.609375 -17.269531 8.609375 -14.28125 C 8.609375 -11.164062 9.242188 -8.785156 10.515625 -7.140625 C 11.796875 -5.492188 13.65625 -4.671875 16.09375 -4.671875 C 17.363281 -4.671875 18.648438 -4.800781 19.953125 -5.0625 L 19.953125 -11.0625 L 14.515625 -11.0625 Z M 14.515625 -16.125 "/></g></g></g><g fill="#2b5b99" fill-opacity="1"><g transform="translate(188.473727, 139.388628)"><g><path d="M 27 -28.71875 L 27 -10.140625 C 27 -8.015625 26.519531 -6.148438 25.5625 -4.546875 C 24.613281 -2.953125 23.242188 -1.726562 21.453125 -0.875 C 19.660156 -0.03125 17.539062 0.390625 15.09375 0.390625 C 11.394531 0.390625 8.523438 -0.550781 6.484375 -2.4375 C 4.441406 -4.332031 3.421875 -6.925781 3.421875 -10.21875 L 3.421875 -28.71875 L 9.484375 -28.71875 L 9.484375 -11.140625 C 9.484375 -8.921875 9.925781 -7.296875 10.8125 -6.265625 C 11.707031 -5.234375 13.1875 -4.71875 15.25 -4.71875 C 17.238281 -4.71875 18.679688 -5.238281 19.578125 -6.28125 C 20.472656 -7.320312 20.921875 -8.953125 20.921875 -11.171875 L 20.921875 -28.71875 Z M 12.046875 -33.078125 C 11.640625 -33.078125 11.25 -32.90625 10.875 -32.5625 C 10.5 -32.21875 10.226562 -31.691406 10.0625 -30.984375 L 7.125 -30.984375 C 7.269531 -32.878906 7.8125 -34.363281 8.75 -35.4375 C 9.6875 -36.507812 10.925781 -37.046875 12.46875 -37.046875 C 13.007812 -37.046875 13.535156 -36.9375 14.046875 -36.71875 C 14.566406 -36.507812 15.078125 -36.273438 15.578125 -36.015625 C 16.085938 -35.765625 16.582031 -35.535156 17.0625 -35.328125 C 17.550781 -35.117188 18.03125 -35.015625 18.5 -35.015625 C 18.90625 -35.015625 19.296875 -35.179688 19.671875 -35.515625 C 20.046875 -35.859375 20.316406 -36.382812 20.484375 -37.09375 L 23.421875 -37.09375 C 23.273438 -35.195312 22.722656 -33.707031 21.765625 -32.625 C 20.816406 -31.550781 19.585938 -31.015625 18.078125 -31.015625 C 17.535156 -31.015625 17.003906 -31.125 16.484375 -31.34375 C 15.972656 -31.5625 15.460938 -31.796875 14.953125 -32.046875 C 14.453125 -32.304688 13.957031 -32.539062 13.46875 -32.75 C 12.988281 -32.96875 12.515625 -33.078125 12.046875 -33.078125 Z M 12.046875 -33.078125 "/></g></g></g><g fill="#2b5b99" fill-opacity="1"><g transform="translate(218.889912, 139.388628)"><g/></g></g><g fill="#2b5b99" fill-opacity="1"><g transform="translate(229.34302, 139.388628)"><g><path d="M 14.515625 -16.125 L 25.90625 -16.125 L 25.90625 -1.234375 C 24.0625 -0.628906 22.320312 -0.207031 20.6875 0.03125 C 19.0625 0.269531 17.398438 0.390625 15.703125 0.390625 C 11.359375 0.390625 8.046875 -0.878906 5.765625 -3.421875 C 3.484375 -5.972656 2.34375 -9.632812 2.34375 -14.40625 C 2.34375 -19.039062 3.664062 -22.65625 6.3125 -25.25 C 8.96875 -27.84375 12.644531 -29.140625 17.34375 -29.140625 C 20.289062 -29.140625 23.132812 -28.546875 25.875 -27.359375 L 23.84375 -22.5 C 21.75 -23.539062 19.570312 -24.0625 17.3125 -24.0625 C 14.675781 -24.0625 12.566406 -23.175781 10.984375 -21.40625 C 9.398438 -19.644531 8.609375 -17.269531 8.609375 -14.28125 C 8.609375 -11.164062 9.242188 -8.785156 10.515625 -7.140625 C 11.796875 -5.492188 13.65625 -4.671875 16.09375 -4.671875 C 17.363281 -4.671875 18.648438 -4.800781 19.953125 -5.0625 L 19.953125 -11.0625 L 14.515625 -11.0625 Z M 14.515625 -16.125 "/></g></g></g><g fill="#2b5b99" fill-opacity="1"><g transform="translate(258.482059, 139.388628)"><g><path d="M 14.359375 0 L 1.296875 0 L 1.296875 -3.453125 L 4.796875 -5.0625 L 4.796875 -23.65625 L 1.296875 -25.265625 L 1.296875 -28.71875 L 14.359375 -28.71875 L 14.359375 -25.265625 L 10.859375 -23.65625 L 10.859375 -5.0625 L 14.359375 -3.453125 Z M 14.359375 0 "/></g></g></g><g fill="#2b5b99" fill-opacity="1"><g transform="translate(274.142065, 139.388628)"><g><path d="M 21.203125 0 L 19.109375 -6.84375 L 8.640625 -6.84375 L 6.5625 0 L 0 0 L 10.140625 -28.84375 L 17.578125 -28.84375 L 27.765625 0 Z M 17.65625 -11.9375 C 15.738281 -18.132812 14.65625 -21.640625 14.40625 -22.453125 C 14.164062 -23.265625 13.992188 -23.90625 13.890625 -24.375 C 13.453125 -22.695312 12.210938 -18.550781 10.171875 -11.9375 Z M 10.625 -31.015625 L 10.625 -31.546875 C 12.882812 -34.171875 14.425781 -36.144531 15.25 -37.46875 L 21.96875 -37.46875 L 21.96875 -37.046875 C 21.289062 -36.367188 20.128906 -35.359375 18.484375 -34.015625 C 16.835938 -32.671875 15.550781 -31.671875 14.625 -31.015625 Z M 10.625 -31.015625 "/></g></g></g><g fill="#2b5b99" fill-opacity="1"><g transform="translate(301.90567, 139.388628)"><g><path d="M 29.6875 -14.40625 C 29.6875 -9.644531 28.503906 -5.988281 26.140625 -3.4375 C 23.785156 -0.882812 20.410156 0.390625 16.015625 0.390625 C 11.609375 0.390625 8.226562 -0.882812 5.875 -3.4375 C 3.519531 -5.988281 2.34375 -9.65625 2.34375 -14.4375 C 2.34375 -19.21875 3.523438 -22.867188 5.890625 -25.390625 C 8.253906 -27.910156 11.640625 -29.171875 16.046875 -29.171875 C 20.460938 -29.171875 23.835938 -27.898438 26.171875 -25.359375 C 28.515625 -22.816406 29.6875 -19.164062 29.6875 -14.40625 Z M 8.71875 -14.40625 C 8.71875 -11.195312 9.328125 -8.78125 10.546875 -7.15625 C 11.765625 -5.53125 13.585938 -4.71875 16.015625 -4.71875 C 20.867188 -4.71875 23.296875 -7.945312 23.296875 -14.40625 C 23.296875 -20.875 20.878906 -24.109375 16.046875 -24.109375 C 13.628906 -24.109375 11.800781 -23.289062 10.5625 -21.65625 C 9.332031 -20.03125 8.71875 -17.613281 8.71875 -14.40625 Z M 8.71875 -14.40625 "/></g></g></g><g fill="#2b5b99" fill-opacity="1"><g transform="translate(333.933061, 139.388628)"><g/></g></g><g fill="#2b5b99" fill-opacity="1"><g transform="translate(344.386168, 139.388628)"><g><path d="M 20 -28.71875 L 26.140625 -28.71875 L 16.390625 0 L 9.75 0 L 0 -28.71875 L 6.15625 -28.71875 L 11.546875 -11.625 C 11.847656 -10.625 12.160156 -9.453125 12.484375 -8.109375 C 12.804688 -6.765625 13.003906 -5.828125 13.078125 -5.296875 C 13.222656 -6.503906 13.71875 -8.613281 14.5625 -11.625 Z M 20 -28.71875 "/></g></g></g><g fill="#2b5b99" fill-opacity="1"><g transform="translate(370.538593, 139.388628)"><g><path d="M 14.359375 0 L 1.296875 0 L 1.296875 -3.453125 L 4.796875 -5.0625 L 4.796875 -23.65625 L 1.296875 -25.265625 L 1.296875 -28.71875 L 14.359375 -28.71875 L 14.359375 -25.265625 L 10.859375 -23.65625 L 10.859375 -5.0625 L 14.359375 -3.453125 Z M 14.359375 0 "/></g></g></g><g fill="#2b5b99" fill-opacity="1"><g transform="translate(386.198624, 139.388628)"><g><path d="M 20.15625 0 L 3.609375 0 L 3.609375 -28.71875 L 20.15625 -28.71875 L 20.15625 -23.734375 L 9.703125 -23.734375 L 9.703125 -17.421875 L 19.421875 -17.421875 L 19.421875 -12.4375 L 9.703125 -12.4375 L 9.703125 -5.03125 L 20.15625 -5.03125 Z M 16.515625 -31.015625 C 14.460938 -32.234375 12.929688 -33.390625 11.921875 -34.484375 C 10.898438 -33.421875 9.398438 -32.265625 7.421875 -31.015625 L 3.4375 -31.015625 L 3.4375 -31.546875 C 5.90625 -34.023438 7.582031 -36 8.46875 -37.46875 L 15.484375 -37.46875 C 15.890625 -36.78125 16.59375 -35.847656 17.59375 -34.671875 C 18.59375 -33.503906 19.5625 -32.460938 20.5 -31.546875 L 20.5 -31.015625 Z M 16.515625 -31.015625 "/></g></g></g><g fill="#2b5b99" fill-opacity="1"><g transform="translate(408.735688, 139.388628)"><g><path d="M 29.09375 0 L 21.359375 0 L 8.859375 -21.734375 L 8.6875 -21.734375 C 8.9375 -17.890625 9.0625 -15.148438 9.0625 -13.515625 L 9.0625 0 L 3.609375 0 L 3.609375 -28.71875 L 11.296875 -28.71875 L 23.765625 -7.203125 L 23.90625 -7.203125 C 23.707031 -10.941406 23.609375 -13.582031 23.609375 -15.125 L 23.609375 -28.71875 L 29.09375 -28.71875 Z M 29.09375 0 "/></g></g></g></svg>