<svg xmlns="http://www.w3.org/2000/svg" xmlns:xlink="http://www.w3.org/1999/xlink" width="650" zoomAndPan="magnify" viewBox="0 0 487.5 149.999998" height="200" preserveAspectRatio="xMidYMid meet" version="1.0"><defs><clipPath id="d9d15c0c2b"><path d="M 206.199219 79 L 239 79 L 239 92.738281 L 206.199219 92.738281 Z M 206.199219 79 " clip-rule="nonzero"/></clipPath><clipPath id="8cef41b912"><path d="M 225 72.507812 L 240 72.507812 L 240 88 L 225 88 Z M 225 72.507812 " clip-rule="nonzero"/></clipPath><clipPath id="485361e455"><path d="M 241 79 L 273.632812 79 L 273.632812 92.738281 L 241 92.738281 Z M 241 79 " clip-rule="nonzero"/></clipPath><clipPath id="6fae737871"><path d="M 240 72.507812 L 255 72.507812 L 255 88 L 240 88 Z M 240 72.507812 " clip-rule="nonzero"/></clipPath></defs><path stroke-linecap="butt" transform="matrix(0.749189, 0.00796725, -0.00796725, 0.749189, 276.234493, 79.999383)" fill="none" stroke-linejoin="miter" d="M 0.00017879 1.502444 L 119.019436 1.498516 " stroke="#8d1515" stroke-width="3" stroke-opacity="1" stroke-miterlimit="4"/><g clip-path="url(#d9d15c0c2b)"><path fill="#8d1515" d="M 206.289062 79.714844 L 212.847656 92.574219 L 209.082031 82.332031 C 209.082031 82.332031 229.554688 84.050781 238.480469 92.574219 C 238.480469 92.574219 235.203125 82.589844 206.289062 79.714844 Z M 206.289062 79.714844 " fill-opacity="1" fill-rule="nonzero"/></g><path fill="#8d1515" d="M 216.816406 75 L 216.816406 79.714844 C 231.503906 81.597656 239.605469 90 239.605469 90 C 233.683594 79.554688 216.816406 75 216.816406 75 Z M 216.816406 75 " fill-opacity="1" fill-rule="nonzero"/><g clip-path="url(#8cef41b912)"><path fill="#8d1515" d="M 225.449219 72.507812 L 225.449219 76.679688 C 234.78125 80.449219 239.59375 87.492188 239.59375 87.492188 C 236.300781 77.75 225.449219 72.507812 225.449219 72.507812 Z M 225.449219 72.507812 " fill-opacity="1" fill-rule="nonzero"/></g><g clip-path="url(#485361e455)"><path fill="#8d1515" d="M 273.871094 79.714844 C 244.957031 82.589844 241.679688 92.574219 241.679688 92.574219 C 250.609375 84.050781 271.078125 82.332031 271.078125 82.332031 L 267.3125 92.574219 Z M 273.871094 79.714844 " fill-opacity="1" fill-rule="nonzero"/></g><path fill="#8d1515" d="M 263.355469 75 C 263.355469 75 246.488281 79.539062 240.566406 89.984375 C 240.566406 89.984375 248.671875 81.585938 263.355469 79.703125 Z M 263.355469 75 " fill-opacity="1" fill-rule="nonzero"/><g clip-path="url(#6fae737871)"><path fill="#8d1515" d="M 254.710938 76.679688 L 254.710938 72.507812 C 254.710938 72.507812 243.859375 77.75 240.566406 87.492188 C 240.566406 87.492188 245.378906 80.449219 254.710938 76.679688 Z M 254.710938 76.679688 " fill-opacity="1" fill-rule="nonzero"/></g><path stroke-linecap="butt" transform="matrix(0.749189, 0.00796725, -0.00796725, 0.749189, 115.136545, 79.525239)" fill="none" stroke-linejoin="miter" d="M 0.000533609 1.499214 L 119.019846 1.500498 " stroke="#8d1515" stroke-width="3" stroke-opacity="1" stroke-miterlimit="4"/></svg>