<svg xmlns="http://www.w3.org/2000/svg" xmlns:xlink="http://www.w3.org/1999/xlink" width="650" zoomAndPan="magnify" viewBox="0 0 487.5 149.999998" height="200" preserveAspectRatio="xMidYMid meet" version="1.0"><defs><g/><clipPath id="e86bf7fe7f"><path d="M 206.199219 79 L 239 79 L 239 92.738281 L 206.199219 92.738281 Z M 206.199219 79 " clip-rule="nonzero"/></clipPath><clipPath id="4e15a1651f"><path d="M 225 72.507812 L 240 72.507812 L 240 88 L 225 88 Z M 225 72.507812 " clip-rule="nonzero"/></clipPath><clipPath id="954d49f860"><path d="M 241 79 L 273.632812 79 L 273.632812 92.738281 L 241 92.738281 Z M 241 79 " clip-rule="nonzero"/></clipPath><clipPath id="b263276f15"><path d="M 240 72.507812 L 255 72.507812 L 255 88 L 240 88 Z M 240 72.507812 " clip-rule="nonzero"/></clipPath></defs><path stroke-linecap="butt" transform="matrix(0.749189, 0.00796725, -0.00796725, 0.749189, 276.234493, 79.999383)" fill="none" stroke-linejoin="miter" d="M 0.00017879 1.502444 L 119.019436 1.498516 " stroke="#8d1515" stroke-width="3" stroke-opacity="1" stroke-miterlimit="4"/><g clip-path="url(#e86bf7fe7f)"><path fill="#8d1515" d="M 206.289062 79.714844 L 212.847656 92.574219 L 209.082031 82.332031 C 209.082031 82.332031 229.554688 84.050781 238.480469 92.574219 C 238.480469 92.574219 235.203125 82.589844 206.289062 79.714844 Z M 206.289062 79.714844 " fill-opacity="1" fill-rule="nonzero"/></g><path fill="#8d1515" d="M 216.816406 75 L 216.816406 79.714844 C 231.503906 81.597656 239.605469 90 239.605469 90 C 233.683594 79.554688 216.816406 75 216.816406 75 Z M 216.816406 75 " fill-opacity="1" fill-rule="nonzero"/><g clip-path="url(#4e15a1651f)"><path fill="#8d1515" d="M 225.449219 72.507812 L 225.449219 76.679688 C 234.78125 80.449219 239.59375 87.492188 239.59375 87.492188 C 236.300781 77.75 225.449219 72.507812 225.449219 72.507812 Z M 225.449219 72.507812 " fill-opacity="1" fill-rule="nonzero"/></g><g clip-path="url(#954d49f860)"><path fill="#8d1515" d="M 273.871094 79.714844 C 244.957031 82.589844 241.679688 92.574219 241.679688 92.574219 C 250.609375 84.050781 271.078125 82.332031 271.078125 82.332031 L 267.3125 92.574219 Z M 273.871094 79.714844 " fill-opacity="1" fill-rule="nonzero"/></g><path fill="#8d1515" d="M 263.355469 75 C 263.355469 75 246.488281 79.539062 240.566406 89.984375 C 240.566406 89.984375 248.671875 81.585938 263.355469 79.703125 Z M 263.355469 75 " fill-opacity="1" fill-rule="nonzero"/><g clip-path="url(#b263276f15)"><path fill="#8d1515" d="M 254.710938 76.679688 L 254.710938 72.507812 C 254.710938 72.507812 243.859375 77.75 240.566406 87.492188 C 240.566406 87.492188 245.378906 80.449219 254.710938 76.679688 Z M 254.710938 76.679688 " fill-opacity="1" fill-rule="nonzero"/></g><path stroke-linecap="butt" transform="matrix(0.749189, 0.00796725, -0.00796725, 0.749189, 115.136545, 79.525239)" fill="none" stroke-linejoin="miter" d="M 0.000533609 1.499214 L 119.019846 1.500498 " stroke="#8d1515" stroke-width="3" stroke-opacity="1" stroke-miterlimit="4"/><g fill="#2b5b99" fill-opacity="1"><g transform="translate(112.635692, 53.047351)"><g><path d="M 0.578125 -10.578125 L 2.28125 -10.578125 L 2.28125 -18.1875 L 8 -18.1875 C 10.96875 -18.1875 13.269531 -17.398438 14.90625 -15.828125 C 16.550781 -14.265625 17.375 -12.078125 17.375 -9.265625 C 17.375 -6.273438 16.519531 -3.984375 14.8125 -2.390625 C 13.113281 -0.796875 10.65625 0 7.4375 0 L 2.28125 0 L 2.28125 -7.40625 L 0.578125 -7.40625 Z M 13.375 -9.171875 C 13.375 -11.085938 12.941406 -12.539062 12.078125 -13.53125 C 11.210938 -14.519531 9.910156 -15.015625 8.171875 -15.015625 L 6.140625 -15.015625 L 6.140625 -10.578125 L 9.09375 -10.578125 L 9.09375 -7.40625 L 6.140625 -7.40625 L 6.140625 -3.1875 L 7.765625 -3.1875 C 11.503906 -3.1875 13.375 -5.179688 13.375 -9.171875 Z M 13.375 -9.171875 "/></g></g></g><g fill="#2b5b99" fill-opacity="1"><g transform="translate(131.486136, 53.047351)"><g><path d="M 18.796875 -9.109375 C 18.796875 -6.097656 18.046875 -3.785156 16.546875 -2.171875 C 15.054688 -0.554688 12.921875 0.25 10.140625 0.25 C 7.347656 0.25 5.207031 -0.554688 3.71875 -2.171875 C 2.226562 -3.785156 1.484375 -6.109375 1.484375 -9.140625 C 1.484375 -12.160156 2.226562 -14.46875 3.71875 -16.0625 C 5.21875 -17.664062 7.363281 -18.46875 10.15625 -18.46875 C 12.945312 -18.46875 15.082031 -17.660156 16.5625 -16.046875 C 18.050781 -14.441406 18.796875 -12.128906 18.796875 -9.109375 Z M 5.515625 -9.109375 C 5.515625 -7.078125 5.898438 -5.546875 6.671875 -4.515625 C 7.441406 -3.492188 8.597656 -2.984375 10.140625 -2.984375 C 13.210938 -2.984375 14.75 -5.023438 14.75 -9.109375 C 14.75 -13.210938 13.21875 -15.265625 10.15625 -15.265625 C 8.625 -15.265625 7.46875 -14.742188 6.6875 -13.703125 C 5.90625 -12.671875 5.515625 -11.140625 5.515625 -9.109375 Z M 8.078125 3.5 C 8.078125 2.25 8.765625 1.625 10.140625 1.625 C 11.515625 1.625 12.203125 2.25 12.203125 3.5 C 12.203125 4.082031 12.023438 4.535156 11.671875 4.859375 C 11.328125 5.179688 10.816406 5.34375 10.140625 5.34375 C 8.765625 5.34375 8.078125 4.726562 8.078125 3.5 Z M 13 -19.640625 C 11.695312 -20.410156 10.726562 -21.140625 10.09375 -21.828125 C 9.445312 -21.148438 8.5 -20.421875 7.25 -19.640625 L 4.71875 -19.640625 L 4.71875 -19.96875 C 6.28125 -21.539062 7.34375 -22.789062 7.90625 -23.71875 L 12.34375 -23.71875 C 12.601562 -23.28125 13.046875 -22.691406 13.671875 -21.953125 C 14.304688 -21.210938 14.925781 -20.550781 15.53125 -19.96875 L 15.53125 -19.640625 Z M 13 -19.640625 "/></g></g></g><g fill="#2b5b99" fill-opacity="1"><g transform="translate(151.754094, 53.047351)"><g><path d="M 9.09375 0 L 0.828125 0 L 0.828125 -2.1875 L 3.03125 -3.203125 L 3.03125 -14.96875 L 0.828125 -16 L 0.828125 -18.1875 L 9.09375 -18.1875 L 9.09375 -16 L 6.875 -14.96875 L 6.875 -3.203125 L 9.09375 -2.1875 Z M 9.09375 0 "/></g></g></g><g fill="#2b5b99" fill-opacity="1"><g transform="translate(161.664259, 53.047351)"><g/></g></g><g fill="#2b5b99" fill-opacity="1"><g transform="translate(168.279323, 53.047351)"><g><path d="M 18.421875 0 L 13.515625 0 L 5.609375 -13.75 L 5.5 -13.75 C 5.65625 -11.320312 5.734375 -9.59375 5.734375 -8.5625 L 5.734375 0 L 2.28125 0 L 2.28125 -18.1875 L 7.15625 -18.1875 L 15.046875 -4.5625 L 15.140625 -4.5625 C 15.015625 -6.925781 14.953125 -8.597656 14.953125 -9.578125 L 14.953125 -18.1875 L 18.421875 -18.1875 Z M 18.421875 0 "/></g></g></g><g fill="#2b5b99" fill-opacity="1"><g transform="translate(188.982486, 53.047351)"><g><path d="M 9.1875 -10.203125 L 16.40625 -10.203125 L 16.40625 -0.78125 C 15.238281 -0.40625 14.132812 -0.140625 13.09375 0.015625 C 12.0625 0.171875 11.007812 0.25 9.9375 0.25 C 7.1875 0.25 5.085938 -0.554688 3.640625 -2.171875 C 2.203125 -3.785156 1.484375 -6.097656 1.484375 -9.109375 C 1.484375 -12.046875 2.320312 -14.332031 4 -15.96875 C 5.675781 -17.613281 8.003906 -18.4375 10.984375 -18.4375 C 12.847656 -18.4375 14.644531 -18.066406 16.375 -17.328125 L 15.09375 -14.234375 C 13.769531 -14.898438 12.390625 -15.234375 10.953125 -15.234375 C 9.285156 -15.234375 7.953125 -14.671875 6.953125 -13.546875 C 5.953125 -12.429688 5.453125 -10.929688 5.453125 -9.046875 C 5.453125 -7.066406 5.851562 -5.554688 6.65625 -4.515625 C 7.46875 -3.472656 8.644531 -2.953125 10.1875 -2.953125 C 10.988281 -2.953125 11.804688 -3.035156 12.640625 -3.203125 L 12.640625 -7 L 9.1875 -7 Z M 9.1875 -10.203125 "/></g></g></g><g fill="#2b5b99" fill-opacity="1"><g transform="translate(207.422601, 53.047351)"><g><path d="M 17.09375 -18.1875 L 17.09375 -6.421875 C 17.09375 -5.078125 16.789062 -3.898438 16.1875 -2.890625 C 15.582031 -1.878906 14.710938 -1.101562 13.578125 -0.5625 C 12.441406 -0.0195312 11.097656 0.25 9.546875 0.25 C 7.210938 0.25 5.394531 -0.347656 4.09375 -1.546875 C 2.800781 -2.742188 2.15625 -4.382812 2.15625 -6.46875 L 2.15625 -18.1875 L 6 -18.1875 L 6 -7.046875 C 6 -5.648438 6.28125 -4.625 6.84375 -3.96875 C 7.414062 -3.3125 8.351562 -2.984375 9.65625 -2.984375 C 10.914062 -2.984375 11.828125 -3.3125 12.390625 -3.96875 C 12.960938 -4.632812 13.25 -5.671875 13.25 -7.078125 L 13.25 -18.1875 Z M 7.625 -20.9375 C 7.363281 -20.9375 7.113281 -20.828125 6.875 -20.609375 C 6.644531 -20.390625 6.472656 -20.054688 6.359375 -19.609375 L 4.515625 -19.609375 C 4.609375 -20.816406 4.945312 -21.757812 5.53125 -22.4375 C 6.125 -23.113281 6.910156 -23.453125 7.890625 -23.453125 C 8.234375 -23.453125 8.566406 -23.382812 8.890625 -23.25 C 9.222656 -23.113281 9.546875 -22.960938 9.859375 -22.796875 C 10.179688 -22.640625 10.492188 -22.492188 10.796875 -22.359375 C 11.109375 -22.222656 11.414062 -22.15625 11.71875 -22.15625 C 11.96875 -22.15625 12.210938 -22.265625 12.453125 -22.484375 C 12.691406 -22.703125 12.863281 -23.035156 12.96875 -23.484375 L 14.828125 -23.484375 C 14.734375 -22.273438 14.382812 -21.332031 13.78125 -20.65625 C 13.175781 -19.976562 12.394531 -19.640625 11.4375 -19.640625 C 11.09375 -19.640625 10.757812 -19.707031 10.4375 -19.84375 C 10.113281 -19.976562 9.789062 -20.125 9.46875 -20.28125 C 9.144531 -20.445312 8.828125 -20.597656 8.515625 -20.734375 C 8.210938 -20.867188 7.914062 -20.9375 7.625 -20.9375 Z M 7.625 -20.9375 "/></g></g></g><g fill="#2b5b99" fill-opacity="1"><g transform="translate(226.670944, 53.047351)"><g/></g></g><g fill="#2b5b99" fill-opacity="1"><g transform="translate(233.286008, 53.047351)"><g><path d="M 9.1875 -10.203125 L 16.40625 -10.203125 L 16.40625 -0.78125 C 15.238281 -0.40625 14.132812 -0.140625 13.09375 0.015625 C 12.0625 0.171875 11.007812 0.25 9.9375 0.25 C 7.1875 0.25 5.085938 -0.554688 3.640625 -2.171875 C 2.203125 -3.785156 1.484375 -6.097656 1.484375 -9.109375 C 1.484375 -12.046875 2.320312 -14.332031 4 -15.96875 C 5.675781 -17.613281 8.003906 -18.4375 10.984375 -18.4375 C 12.847656 -18.4375 14.644531 -18.066406 16.375 -17.328125 L 15.09375 -14.234375 C 13.769531 -14.898438 12.390625 -15.234375 10.953125 -15.234375 C 9.285156 -15.234375 7.953125 -14.671875 6.953125 -13.546875 C 5.953125 -12.429688 5.453125 -10.929688 5.453125 -9.046875 C 5.453125 -7.066406 5.851562 -5.554688 6.65625 -4.515625 C 7.46875 -3.472656 8.644531 -2.953125 10.1875 -2.953125 C 10.988281 -2.953125 11.804688 -3.035156 12.640625 -3.203125 L 12.640625 -7 L 9.1875 -7 Z M 9.1875 -10.203125 "/></g></g></g><g fill="#2b5b99" fill-opacity="1"><g transform="translate(251.726131, 53.047351)"><g><path d="M 9.09375 0 L 0.828125 0 L 0.828125 -2.1875 L 3.03125 -3.203125 L 3.03125 -14.96875 L 0.828125 -16 L 0.828125 -18.1875 L 9.09375 -18.1875 L 9.09375 -16 L 6.875 -14.96875 L 6.875 -3.203125 L 9.09375 -2.1875 Z M 9.09375 0 "/></g></g></g><g fill="#2b5b99" fill-opacity="1"><g transform="translate(261.636288, 53.047351)"><g><path d="M 13.421875 0 L 12.09375 -4.328125 L 5.46875 -4.328125 L 4.15625 0 L 0 0 L 6.421875 -18.25 L 11.125 -18.25 L 17.578125 0 Z M 11.1875 -7.5625 C 9.96875 -11.476562 9.28125 -13.691406 9.125 -14.203125 C 8.96875 -14.722656 8.859375 -15.132812 8.796875 -15.4375 C 8.515625 -14.375 7.726562 -11.75 6.4375 -7.5625 Z M 6.71875 -19.640625 L 6.71875 -19.96875 C 8.144531 -21.625 9.117188 -22.875 9.640625 -23.71875 L 13.890625 -23.71875 L 13.890625 -23.453125 C 13.460938 -23.023438 12.726562 -22.382812 11.6875 -21.53125 C 10.644531 -20.6875 9.832031 -20.054688 9.25 -19.640625 Z M 6.71875 -19.640625 "/></g></g></g><g fill="#2b5b99" fill-opacity="1"><g transform="translate(279.205992, 53.047351)"><g><path d="M 18.796875 -9.109375 C 18.796875 -6.097656 18.046875 -3.785156 16.546875 -2.171875 C 15.054688 -0.554688 12.921875 0.25 10.140625 0.25 C 7.347656 0.25 5.207031 -0.554688 3.71875 -2.171875 C 2.226562 -3.785156 1.484375 -6.109375 1.484375 -9.140625 C 1.484375 -12.160156 2.226562 -14.46875 3.71875 -16.0625 C 5.21875 -17.664062 7.363281 -18.46875 10.15625 -18.46875 C 12.945312 -18.46875 15.082031 -17.660156 16.5625 -16.046875 C 18.050781 -14.441406 18.796875 -12.128906 18.796875 -9.109375 Z M 5.515625 -9.109375 C 5.515625 -7.078125 5.898438 -5.546875 6.671875 -4.515625 C 7.441406 -3.492188 8.597656 -2.984375 10.140625 -2.984375 C 13.210938 -2.984375 14.75 -5.023438 14.75 -9.109375 C 14.75 -13.210938 13.21875 -15.265625 10.15625 -15.265625 C 8.625 -15.265625 7.46875 -14.742188 6.6875 -13.703125 C 5.90625 -12.671875 5.515625 -11.140625 5.515625 -9.109375 Z M 5.515625 -9.109375 "/></g></g></g><g fill="#2b5b99" fill-opacity="1"><g transform="translate(299.473958, 53.047351)"><g/></g></g><g fill="#2b5b99" fill-opacity="1"><g transform="translate(306.089022, 53.047351)"><g><path d="M 12.65625 -18.1875 L 16.546875 -18.1875 L 10.375 0 L 6.171875 0 L 0 -18.1875 L 3.890625 -18.1875 L 7.3125 -7.359375 C 7.5 -6.722656 7.691406 -5.976562 7.890625 -5.125 C 8.097656 -4.28125 8.226562 -3.691406 8.28125 -3.359375 C 8.375 -4.117188 8.6875 -5.453125 9.21875 -7.359375 Z M 12.65625 -18.1875 "/></g></g></g><g fill="#2b5b99" fill-opacity="1"><g transform="translate(322.639119, 53.047351)"><g><path d="M 9.09375 0 L 0.828125 0 L 0.828125 -2.1875 L 3.03125 -3.203125 L 3.03125 -14.96875 L 0.828125 -16 L 0.828125 -18.1875 L 9.09375 -18.1875 L 9.09375 -16 L 6.875 -14.96875 L 6.875 -3.203125 L 9.09375 -2.1875 Z M 9.09375 0 "/></g></g></g><g fill="#2b5b99" fill-opacity="1"><g transform="translate(332.549292, 53.047351)"><g><path d="M 12.765625 0 L 2.28125 0 L 2.28125 -18.1875 L 12.765625 -18.1875 L 12.765625 -15.015625 L 6.140625 -15.015625 L 6.140625 -11.03125 L 12.296875 -11.03125 L 12.296875 -7.875 L 6.140625 -7.875 L 6.140625 -3.1875 L 12.765625 -3.1875 Z M 10.453125 -19.640625 C 9.148438 -20.410156 8.179688 -21.140625 7.546875 -21.828125 C 6.898438 -21.148438 5.953125 -20.421875 4.703125 -19.640625 L 2.171875 -19.640625 L 2.171875 -19.96875 C 3.734375 -21.539062 4.796875 -22.789062 5.359375 -23.71875 L 9.796875 -23.71875 C 10.054688 -23.28125 10.5 -22.691406 11.125 -21.953125 C 11.757812 -21.210938 12.378906 -20.550781 12.984375 -19.96875 L 12.984375 -19.640625 Z M 10.453125 -19.640625 "/></g></g></g><g fill="#2b5b99" fill-opacity="1"><g transform="translate(346.811473, 53.047351)"><g><path d="M 18.421875 0 L 13.515625 0 L 5.609375 -13.75 L 5.5 -13.75 C 5.65625 -11.320312 5.734375 -9.59375 5.734375 -8.5625 L 5.734375 0 L 2.28125 0 L 2.28125 -18.1875 L 7.15625 -18.1875 L 15.046875 -4.5625 L 15.140625 -4.5625 C 15.015625 -6.925781 14.953125 -8.597656 14.953125 -9.578125 L 14.953125 -18.1875 L 18.421875 -18.1875 Z M 18.421875 0 "/></g></g></g></svg>