<svg xmlns="http://www.w3.org/2000/svg" width="430" height="430" fill="none" viewBox="0 0 430 430"><path fill="#f9c9c0" d="M358.201 264.342v-83.8l-129.9 34.6-12.6 3.4.1 65.9.1 111.2c.3 0 .6 0 .8-.1l139.5-43.2c1.3-.4 2.1-1.5 2.1-2.9zM215.8 395.642c-.2 0-.5 0-.7-.1h-.1l-140.2-42.3c-.1 0-.1-.1-.2-.1s-.2-.1-.2-.1c-.1-.1-.3-.1-.4-.2s-.2-.1-.3-.2l-.1-.1-.1-.1-.1-.2s0-.1-.1-.1c-.1-.1-.1-.2-.2-.3v-.1c0-.1-.1-.1-.1-.2v-1.1l-.7-86.8-.4-82.2v-.1l143.7 37.2.1 65.9z"/><path fill="#f9c9c0" d="M215.8 395.642c-.2 0-.5 0-.7-.1h-.1l-140.2-42.3c-.1 0-.1-.1-.2-.1s-.2-.1-.2-.1c-.1-.1-.3-.1-.4-.2s-.2-.1-.3-.2l-.1-.1-.1-.1-.1-.2v-.1c-.1-.1-.1-.2-.2-.3v-.1c0-.1-.1-.1-.1-.2v-1.1l-.8-86.8-.4-82.2v-.1l143.7 37.2.1 65.9z" style="mix-blend-mode:multiply"/><path fill="#f9c9c0" d="m380.5 132.942-.4 39.6v.3c-.1 1.2-1 2.3-2.2 2.6l-19.7 5.3-142.5 37.9-143.8-37.2-19.8-5.1c-1.3-.3-2.2-1.5-2.3-2.9l-.4-40.5c0-.8.4-1.5.9-2l164.6 42.5 164.7-42.5c.4.5.7 1 .8 1.7.1.1.1.2.1.3"/><path fill="#f9c9c0" d="M379.701 130.942c-.4-.4-.8-.7-1.3-.8l-162.6-42q-.75-.15-1.5 0l-162.7 42c-.5.1-1 .4-1.3.8l164.6 42.5z"/><path fill="#f9c9c0" d="m379.7 130.942-164.7 42.5-164.7-42.5c-.5.5-.8 1.2-.9 2l.4 40.5c0 1.4.9 2.5 2.2 2.9l19.8 5.1 143.7 37.1 12.6-3.4 130-34.5 19.7-5.2c1.2-.3 2.1-1.4 2.2-2.6v-.3l.4-39.9c0-.7-.3-1.3-.7-1.7" opacity=".3" style="mix-blend-mode:multiply"/><path fill="#f9c9c0" d="m215.6 218.542-143.7-37.1-19.8-5.1c-1.3-.3-2.2-1.5-2.3-2.9l-.4-40.5c0-.8.4-1.5.9-2l164.6 42.5z" opacity=".5" style="mix-blend-mode:multiply"/><path stroke="#121331" stroke-linecap="round" stroke-linejoin="round" stroke-miterlimit="3.6" stroke-width="7" d="m380.5 130.642-.4 44.1-21.9 5.8-142.5 37.9-143.8-37-22-5.7-.5-45m165.5-42.8-165.5 42.8 165.5 42.7 165.7-42.8z"/><path stroke="#121331" stroke-linecap="round" stroke-linejoin="round" stroke-miterlimit="3.6" stroke-width="7" d="m215.6 218.542.1 65.9.1 111.3m142.4-131.4v-83.8l-142.5 38-143.8-37.2v.1l.4 82.2.4 89 143.1 43.2 142.4-44.2z"/><path stroke="#92140c" stroke-linecap="round" stroke-linejoin="round" stroke-miterlimit="3.6" stroke-width="7" d="m215.4 122.742-24.4 7.9-62.5 20.4-4.9 1.6-.1 41.8v.5l4.8 1.4 8.5 2.4-.2 83-.2 89.9m79-248.8.6.2.1.1 23.4 7.6 62.3 20.3 5.3 1.7-.1 40.9-4.4 1.4-1.7.6-7.3 2.3.2 78.5.3 95"/><path stroke="#92140c" stroke-linecap="round" stroke-miterlimit="3.6" stroke-width="7" d="M215.799 121.142c-213.7-29.6-45.1-179 2.2 2.2"/><path stroke="#92140c" stroke-linecap="round" stroke-miterlimit="3.6" stroke-width="7" d="M218.1 121.142c211.1-29.6 44.6-179-2.2 2.2"/></svg>